<?xml version="1.0" encoding="UTF-8" standalone="no"?>
<svg
   xmlns:dc="http://purl.org/dc/elements/1.1/"
   xmlns:cc="http://creativecommons.org/ns#"
   xmlns:rdf="http://www.w3.org/1999/02/22-rdf-syntax-ns#"
   xmlns:svg="http://www.w3.org/2000/svg"
   xmlns="http://www.w3.org/2000/svg"
   xmlns:sodipodi="http://sodipodi.sourceforge.net/DTD/sodipodi-0.dtd"
   xmlns:inkscape="http://www.inkscape.org/namespaces/inkscape"
   version="1.2"
   x="0px"
   y="0px"
   viewBox="0 0 100 125"
   xml:space="preserve"
   id="svg4550"
   sodipodi:docname="temp-logo.svg"
   inkscape:version="0.92.3 (2405546, 2018-03-11)"><metadata
     id="metadata4556"><rdf:RDF><cc:Work
         rdf:about=""><dc:format>image/svg+xml</dc:format><dc:type
           rdf:resource="http://purl.org/dc/dcmitype/StillImage" /><dc:title></dc:title></cc:Work></rdf:RDF></metadata><defs
     id="defs4554" /><sodipodi:namedview
     pagecolor="#ffffff"
     bordercolor="#666666"
     borderopacity="1"
     objecttolerance="10"
     gridtolerance="10"
     guidetolerance="10"
     inkscape:pageopacity="0"
     inkscape:pageshadow="2"
     inkscape:window-width="1920"
     inkscape:window-height="1013"
     id="namedview4552"
     showgrid="false"
     inkscape:zoom="6.56"
     inkscape:cx="50"
     inkscape:cy="74.695122"
     inkscape:window-x="-9"
     inkscape:window-y="-9"
     inkscape:window-maximized="1"
     inkscape:current-layer="svg4550" /><path
     d="M50,95c14.773,0,27.692-8.056,34.619-20H95v-5h-7.929c0.333-0.82,0.639-1.654,0.918-2.5H95v-5h-5.715  c0.157-0.825,0.286-1.658,0.392-2.5H95v-5h-5c0-8.678-2.787-16.713-7.5-23.275V5c-9.637,0-18.291,4.198-24.243,10.862  C55.592,15.3,52.831,15,50,15s-5.592,0.3-8.257,0.862C35.791,9.198,27.137,5,17.5,5h0v26.725C12.787,38.287,10,46.322,10,55H5v5  h5.324c0.105,0.842,0.235,1.675,0.392,2.5H5v5h7.011c0.279,0.846,0.585,1.68,0.918,2.5H5v5h10.381C22.308,86.944,35.227,95,50,95z   M77.5,10.455v15.538c-3.922-3.72-8.587-6.664-13.758-8.561C67.502,13.916,72.234,11.426,77.5,10.455z M22.5,10.455  c5.266,0.971,9.998,3.46,13.758,6.977c-5.17,1.897-9.836,4.841-13.758,8.561L22.5,10.455z M37.5,25.003V30h5v-6.617  c1.624-0.385,3.293-0.647,5-0.778V30h5v-7.394c1.707,0.131,3.376,0.392,5,0.778V30h5v-4.997c11.733,4.908,20,16.504,20,29.997H75v5  h7.115c-0.131,0.845-0.303,1.677-0.498,2.5H72.5v5h7.497c-0.357,0.853-0.754,1.685-1.18,2.5H70v5h5.589  C69.635,82.601,60.382,87.5,50,87.5S30.365,82.601,24.411,75H30v-5h-8.817c-0.426-0.815-0.823-1.647-1.18-2.5H27.5v-5h-9.117  c-0.195-0.823-0.367-1.655-0.498-2.5H25v-5h-7.5C17.5,41.507,25.767,29.911,37.5,25.003z"
     id="path4538" /><path
     d="M42.92,58.887l4.514,6.77C47.108,68.101,45.032,70,42.5,70c-2.757,0-5-2.243-5-5h-5c0,5.514,4.486,10,10,10  c2.988,0,5.666-1.324,7.5-3.408C51.834,73.676,54.512,75,57.5,75c5.514,0,10-4.486,10-10h-5c0,2.757-2.243,5-5,5  c-2.532,0-4.608-1.899-4.934-4.343l4.514-6.77L55,55H45L42.92,58.887z"
     id="path4540" /><path
     d="M32.5,50c0-2.757,2.243-5,5-5s5,2.243,5,5h5c0-5.514-4.486-10-10-10s-10,4.486-10,10H32.5z"
     id="path4542" /><path
     d="M57.5,50c0-2.757,2.243-5,5-5s5,2.243,5,5h5c0-5.514-4.486-10-10-10s-10,4.486-10,10H57.5z"
     id="path4544" /></svg>